<svg width="21" height="20" viewBox="0 0 21 20" fill="none" xmlns="http://www.w3.org/2000/svg">
<path d="M10.9719 0C5.46173 0 0.995117 4.477 0.995117 10C0.995117 15.523 5.46173 20 10.9719 20C16.4821 20 20.9487 15.523 20.9487 10C20.9487 4.477 16.4821 0 10.9719 0ZM10.9719 2C15.3797 2 18.9534 5.582 18.9534 10C18.9534 14.418 15.3797 18 10.9719 18C10.238 18 9.53076 17.893 8.85574 17.707C9.06806 17.2783 9.25852 16.8265 9.36238 16.4258C9.47711 15.9858 9.94696 14.1914 9.94696 14.1914C10.2522 14.7754 11.1445 15.2715 12.0943 15.2715C14.9207 15.2715 16.958 12.6657 16.958 9.42773C16.958 6.32273 14.4309 4 11.1785 4C7.13287 4 4.98584 6.72155 4.98584 9.68555C4.98584 11.0635 5.71739 12.7792 6.88766 13.3262C7.06525 13.4092 7.16048 13.3732 7.20139 13.2012C7.23331 13.0702 7.39166 12.4318 7.4625 12.1348C7.48545 12.0408 7.47502 11.9582 7.3982 11.8652C7.0111 11.3942 6.7006 10.5297 6.7006 9.72266C6.7006 7.64966 8.26615 5.64453 10.9329 5.64453C13.2356 5.64453 14.8477 7.2178 14.8477 9.4668C14.8477 12.0078 13.5675 13.7676 11.9014 13.7676C10.9815 13.7676 10.2906 13.0063 10.512 12.0703C10.7764 10.9533 11.2895 9.74741 11.2895 8.94141C11.2895 8.22041 10.9049 7.61914 10.1048 7.61914C9.16398 7.61914 8.40757 8.59339 8.40757 9.90039C8.40757 10.7324 8.68816 11.2949 8.68816 11.2949C8.68816 11.2949 7.75976 15.2318 7.58916 15.9648C7.50461 16.3266 7.47638 16.7551 7.47419 17.1836C4.82199 15.8831 2.99048 13.1586 2.99048 10C2.99048 5.582 6.56417 2 10.9719 2Z" fill="black"/>
</svg>
