<svg width="21" height="16" viewBox="0 0 21 16" fill="none" xmlns="http://www.w3.org/2000/svg">
<path d="M20.9487 -0.000976562C20.1705 0.462023 18.6092 1.09302 17.6913 1.27502C17.6644 1.28202 17.6424 1.29102 17.6165 1.29802C16.8053 0.496023 15.6939 -0.000976562 14.4638 -0.000976562C11.9846 -0.000976562 9.97424 2.01402 9.97424 4.49902C9.97424 4.63002 9.96326 4.87102 9.97424 4.99902C6.62902 4.99902 4.08294 3.24302 2.25718 0.999023C2.05864 1.49902 1.97185 2.28902 1.97185 3.03102C1.97185 4.43202 3.0643 5.80802 4.76535 6.66102C4.45208 6.74202 4.10688 6.80002 3.74772 6.80002C3.16806 6.80002 2.55449 6.64702 1.9928 6.18302C1.9928 6.20002 1.9928 6.21602 1.9928 6.23402C1.9928 8.19202 4.06598 9.52502 5.90969 9.89602C5.53556 10.117 4.78131 10.139 4.41317 10.139C4.15377 10.139 3.23591 10.02 2.99048 9.97402C3.50328 11.579 5.35298 12.481 7.11588 12.513C5.73709 13.597 4.78031 13.999 1.95688 13.999H0.995117C2.77897 15.145 5.05069 16 7.32739 16C14.7402 16 18.9534 10.337 18.9534 4.99902C18.9534 4.91302 18.9514 4.73302 18.9484 4.55202C18.9484 4.53402 18.9534 4.51702 18.9534 4.49902C18.9534 4.47202 18.9454 4.44602 18.9454 4.41902C18.9424 4.28302 18.9394 4.15602 18.9364 4.09002C19.7246 3.52002 20.408 2.80902 20.9487 1.99902C20.2254 2.32102 19.4492 2.53702 18.6341 2.63502C19.4662 2.13502 20.6484 0.943023 20.9487 -0.000976562ZM16.958 4.99902C16.958 9.07902 14.0079 13.398 8.51164 13.942C9.25591 13.413 9.97424 12.662 9.97424 12.662C9.97424 12.662 6.9812 10 6.75672 6.52202C7.78932 6.83802 8.86482 6.99902 9.97424 6.99902H11.9696V4.49902C11.9716 3.11902 13.087 2.00002 14.4638 2.00002C15.8416 2.00002 16.958 3.11902 16.958 4.50002C16.958 4.50002 16.958 4.92002 16.958 4.99902Z" fill="black"/>
</svg>
