<svg width="20" height="20" viewBox="0 0 20 20" fill="none" xmlns="http://www.w3.org/2000/svg">
<path d="M19.915 8.752L19.697 7H15.304L18.278 4.026L16.73 2.615C14.88 0.929 12.49 0 10 0C4.486 0 0 4.486 0 10C0 15.514 4.486 20 10 20C15.514 20 20 15.514 20 10C20 9.61 19.973 9.214 19.915 8.752ZM10 18C5.582 18 2 14.418 2 10C2 5.582 5.582 2 10 2C12.076 2 13.96 2.797 15.382 4.093L13.248 6.227C12.372 5.473 11.247 5 10 5C7.239 5 5 7.239 5 10C5 12.761 7.239 15 10 15C12.049 15 13.806 13.764 14.578 12H11V9H17.931C17.972 9.328 18 9.661 18 10C18 14.418 14.418 18 10 18ZM9 7.171V9V12V12.829C7.836 12.416 7 11.304 7 10C7 8.696 7.836 7.584 9 7.171Z" fill="black"/>
</svg>
