<svg width="13" height="11" viewBox="0 0 13 11" fill="none" xmlns="http://www.w3.org/2000/svg">
<g opacity="0.9">
<path d="M11.077 0.960366C10.7815 0.655746 10.4307 0.41414 10.0447 0.249355C9.65859 0.084571 9.2448 -0.000161538 8.82695 2.31197e-07C8.40909 0.000162 7.99536 0.0852149 7.60941 0.250298C7.22345 0.415382 6.87283 0.657259 6.57758 0.962108L6.19218 1.36429L5.80999 0.962979L5.80751 0.960418C5.51218 0.65594 5.16158 0.414415 4.77571 0.249633C4.38985 0.0848513 3.97628 3.90257e-05 3.55862 3.90257e-05C3.14097 3.90257e-05 2.7274 0.0848513 2.34154 0.249633C1.95567 0.414415 1.60507 0.65594 1.30974 0.960418L1.13805 1.13743C0.541617 1.75234 0.206543 2.58634 0.206543 3.45596C0.206543 4.32558 0.541617 5.15958 1.13805 5.7745L5.66943 10.4462L6.18115 10.9989L6.19335 10.9863L6.20659 11L6.68604 10.4785L11.2487 5.77442C11.8442 5.15902 12.1787 4.3252 12.1787 3.45588C12.1787 2.58657 11.8442 1.75275 11.2487 1.13735L11.077 0.960366ZM10.6864 5.1948L6.19335 9.8271L1.70024 5.1948C1.25291 4.73361 1.00161 4.10811 1.00161 3.4559C1.00161 2.80369 1.25291 2.17819 1.70024 1.717L1.87195 1.53999C2.31906 1.07903 2.9254 0.819964 3.5577 0.819719C4.19001 0.819474 4.79654 1.07807 5.24398 1.53868L6.19047 2.53227L7.14146 1.53999C7.36295 1.31163 7.6259 1.13049 7.9153 1.0069C8.2047 0.883316 8.51487 0.819706 8.82812 0.819706C9.14136 0.819706 9.45153 0.883316 9.74093 1.0069C10.0303 1.13049 10.2933 1.31163 10.5148 1.53999L10.6865 1.71697C11.1331 2.17854 11.3839 2.80392 11.3839 3.45591C11.3839 4.1079 11.133 4.73326 10.6864 5.1948Z" fill="black"/>
</g>
</svg>
