<svg width="27" height="26" viewBox="0 0 27 26" fill="none" xmlns="http://www.w3.org/2000/svg">
<path d="M25.1476 20.8143L20.7492 16.416L17.3661 15.0183C18.4926 13.4164 19.0961 11.5053 19.0939 9.54697C19.0939 4.28274 14.8112 0 9.54697 0C4.28274 0 0 4.28274 0 9.54697C0 14.8112 4.28274 19.0939 9.54697 19.0939C11.5223 19.0962 13.4492 18.4823 15.0592 17.3377L16.4533 20.7117L20.8514 25.1102C21.1335 25.3923 21.4684 25.6161 21.8369 25.7687C22.2055 25.9214 22.6005 26 22.9994 26C23.3983 26 23.7933 25.9215 24.1619 25.7688C24.5305 25.6162 24.8654 25.3924 25.1474 25.1103C25.4295 24.8283 25.6533 24.4934 25.806 24.1248C25.9586 23.7563 26.0372 23.3613 26.0372 22.9624C26.0373 22.5634 25.9587 22.1684 25.806 21.7999C25.6534 21.4313 25.4296 21.0964 25.1476 20.8143ZM1.73581 9.54697C1.73581 5.23998 5.23998 1.73581 9.54697 1.73581C13.8539 1.73581 17.3581 5.23998 17.3581 9.54697C17.3581 13.8539 13.8539 17.3581 9.54697 17.3581C5.23998 17.3581 1.73581 13.8539 1.73581 9.54697ZM23.9201 23.8828C23.6757 24.1266 23.3447 24.2635 22.9995 24.2635C22.6543 24.2635 22.3233 24.1266 22.0789 23.8828L17.9254 19.7292L16.6292 16.592L19.7666 17.8881L23.9202 22.0417C24.164 22.2861 24.3008 22.6171 24.3008 22.9623C24.3008 23.3074 24.1639 23.6385 23.9201 23.8828Z" fill="black"/>
</svg>
