<svg width="26" height="25" viewBox="0 0 26 25" fill="none" xmlns="http://www.w3.org/2000/svg">
<path d="M7.8 4.129V5.77979H24.2667V9.04759L22.3438 14.8592H7.25465L5.08798 0H0V1.65079H3.57868L5.74535 16.51H23.6149L26 9.3015V4.129H7.8Z" fill="black"/>
<path d="M8.72018 18.1765C7.80108 18.1775 6.91993 18.5257 6.27003 19.1446C5.62013 19.7636 5.25456 20.6028 5.25351 21.4781C5.25351 22.3537 5.61875 23.1935 6.26887 23.8127C6.919 24.4318 7.80076 24.7797 8.72018 24.7797C9.63959 24.7797 10.5214 24.4318 11.1715 23.8127C11.8216 23.1935 12.1868 22.3537 12.1868 21.4781C12.1858 20.6028 11.8202 19.7636 11.1703 19.1446C10.5204 18.5257 9.63928 18.1775 8.72018 18.1765ZM8.72018 23.1289C8.37735 23.1289 8.04223 23.0321 7.75719 22.8507C7.47214 22.6693 7.24998 22.4115 7.11879 22.1098C6.98759 21.8082 6.95327 21.4763 7.02015 21.156C7.08703 20.8358 7.25211 20.5417 7.49452 20.3108C7.73694 20.0799 8.04579 19.9227 8.38202 19.859C8.71825 19.7953 9.06677 19.828 9.38349 19.953C9.70022 20.0779 9.97093 20.2895 10.1614 20.561C10.3519 20.8324 10.4535 21.1516 10.4535 21.4781C10.453 21.9158 10.2702 22.3353 9.94523 22.6448C9.62028 22.9543 9.17972 23.1284 8.72018 23.1289Z" fill="black"/>
<path d="M20.8532 18.1765C19.9341 18.1775 19.053 18.5257 18.4031 19.1446C17.7532 19.7636 17.3876 20.6028 17.3865 21.4781C17.3865 22.3537 17.7518 23.1935 18.4019 23.8127C19.052 24.4318 19.9338 24.7797 20.8532 24.7797C21.7726 24.7797 22.6544 24.4318 23.3045 23.8127C23.9546 23.1935 24.3199 22.3537 24.3199 21.4781C24.3188 20.6028 23.9533 19.7636 23.3034 19.1446C22.6535 18.5257 21.7723 18.1775 20.8532 18.1765ZM20.8532 23.1289C20.5104 23.1289 20.1753 23.0321 19.8902 22.8507C19.6052 22.6693 19.383 22.4115 19.2518 22.1098C19.1206 21.8082 19.0863 21.4763 19.1532 21.156C19.2201 20.8358 19.3851 20.5417 19.6276 20.3108C19.87 20.0799 20.1788 19.9227 20.515 19.859C20.8513 19.7953 21.1998 19.828 21.5165 19.953C21.8332 20.0779 22.104 20.2895 22.2944 20.561C22.4849 20.8324 22.5865 21.1516 22.5865 21.4781C22.586 21.9158 22.4032 22.3353 22.0783 22.6448C21.7533 22.9543 21.3127 23.1284 20.8532 23.1289Z" fill="black"/>
</svg>
