<svg width="71" height="71" viewBox="0 0 71 71" fill="none" xmlns="http://www.w3.org/2000/svg">
<circle cx="35.5811" cy="35.6555" r="35" fill="#F598A4"/>
<path fill-rule="evenodd" clip-rule="evenodd" d="M23 28C21.8954 28 21 28.662 21 29.4785V42.7852C21 43.6017 21.8954 44.2637 23 44.2637H49C50.1046 44.2637 51 43.6017 51 42.7852V29.4785C51 28.662 50.1046 28 49 28H23ZM23 29.4785H49V30.8461C48.8348 30.8459 48.6676 30.8794 48.5178 30.9497L36 36.8223L23.4822 30.9497C23.3324 30.8794 23.1652 30.8459 23 30.8461V29.4785ZM23 32.2995V42.7852H49V32.2995L36.4822 38.1721C36.1879 38.3102 35.8121 38.3102 35.5178 38.1721L23 32.2995Z" fill="white"/>
</svg>
