<svg width="71" height="71" viewBox="0 0 71 71" fill="none" xmlns="http://www.w3.org/2000/svg">
<circle cx="35.4209" cy="35.6556" r="35" fill="white"/>
<path d="M47.1553 46.5223L47.186 46.4856L50.234 41.8486L41.1485 36.9097L37.0133 39.2263C35.4447 39.166 33.9605 38.6846 32.8418 37.8732C31.723 37.0618 31.0474 35.9768 30.9427 34.8235L34.0307 31.7476L27.1881 25.1344L20.9836 27.4249L20.9312 27.4442L20.8818 27.4674C20.6192 27.5892 20.4034 27.7585 20.2548 27.9591C20.1063 28.1597 20.03 28.385 20.0332 28.6134L20.045 29.8057C20.0676 32.1029 20.7049 34.3743 21.9205 36.4902C23.136 38.6062 24.9061 40.5253 27.1296 42.1379C29.3531 43.7505 31.9865 45.025 34.8794 45.8887C37.7723 46.7525 40.868 47.1884 43.9899 47.1718L45.6102 47.1632C45.9207 47.1622 46.2257 47.1029 46.4961 46.9907C46.7666 46.8785 46.9935 46.7173 47.1553 46.5223ZM43.9731 45.4643C32.1443 45.5274 22.4511 38.4973 22.3654 29.7933L22.3559 28.8286L26.5079 27.296L31.1303 31.7633L28.6061 34.2777L28.6089 34.5622C28.6283 36.2655 29.565 37.8935 31.2136 39.0892C32.8623 40.2848 35.0881 40.9505 37.4029 40.9401L37.7896 40.938L41.1696 39.0444L47.3066 42.3803L45.2838 45.4573L43.9731 45.4643Z" fill="#F598A4"/>
</svg>
