<svg width="70" height="70" viewBox="0 0 70 70" fill="none" xmlns="http://www.w3.org/2000/svg">
<circle cx="35" cy="35" r="35" fill="#F598A4"/>
<path d="M35.1503 28.6018C34.3387 28.6018 33.5454 28.793 32.8706 29.1511C32.1958 29.5092 31.6698 30.0182 31.3592 30.6138C31.0487 31.2093 30.9674 31.8646 31.1257 32.4968C31.2841 33.129 31.6749 33.7098 32.2487 34.1656C32.8226 34.6214 33.5538 34.9318 34.3498 35.0576C35.1458 35.1833 35.9708 35.1188 36.7206 34.8721C37.4704 34.6254 38.1113 34.2077 38.5622 33.6717C39.0131 33.1357 39.2537 32.5056 39.2537 31.861C39.2525 30.9969 38.8198 30.1685 38.0505 29.5575C37.2812 28.9465 36.2382 28.6028 35.1503 28.6018ZM35.1503 33.4906C34.7445 33.4906 34.3478 33.395 34.0104 33.2159C33.673 33.0369 33.4101 32.7824 33.2548 32.4846C33.0995 32.1868 33.0588 31.8592 33.138 31.5431C33.2172 31.227 33.4126 30.9366 33.6995 30.7087C33.9865 30.4808 34.352 30.3256 34.75 30.2627C35.148 30.1998 35.5606 30.2321 35.9355 30.3554C36.3104 30.4788 36.6308 30.6877 36.8562 30.9556C37.0817 31.2236 37.202 31.5387 37.202 31.861C37.2014 32.293 36.985 32.7072 36.6004 33.0127C36.2158 33.3182 35.6943 33.4901 35.1503 33.4906Z" fill="white"/>
<path d="M43.0353 25.5934C41.0857 24.0453 38.4833 23.1256 35.7302 23.012C32.9771 22.8983 30.2686 23.5986 28.1274 24.9778C25.9862 26.357 24.5641 28.3172 24.1356 30.4802C23.7071 32.6432 24.3025 34.8556 25.8069 36.6904L33.559 46.1427C33.7315 46.3531 33.9674 46.5259 34.2453 46.6455C34.5231 46.7651 34.8342 46.8278 35.1502 46.8278C35.4663 46.8278 35.7773 46.7651 36.0552 46.6455C36.333 46.5259 36.5689 46.3531 36.7414 46.1427L44.4938 36.6904C45.8897 34.9884 46.5067 32.9569 46.2411 30.9366C45.9756 28.9162 44.8438 27.0297 43.0353 25.5934ZM42.7747 35.8009L35.1503 45.0972L27.5258 35.8009C25.1919 32.9553 25.6925 29.1471 28.716 26.7456C29.5609 26.0745 30.564 25.5421 31.668 25.1789C32.772 24.8157 33.9553 24.6287 35.1503 24.6287C36.3452 24.6287 37.5285 24.8157 38.6325 25.1789C39.7365 25.5421 40.7396 26.0745 41.5846 26.7456C44.608 29.1471 45.1085 32.9553 42.7747 35.8009Z" fill="white"/>
</svg>
